# xmcd
#
# Track frame offsets: 
#        150
#        13204
#        27300
#        40467
#        54685
#        69664
#        84010
#        100480
#        116482
#        135374
#        152231
#        164769
#        181732
#        197350
#        218746
#        238655
#        257989
#        270693
#
# Disc length: 3940 seconds
#
# Revision: 0
# Processed by: cddbd v1.5.2PL0 Copyright (c) Steve Scherf et al.
# Submitted via: ExactAudioCopy v0.99pb4
#
DISCID=fd0f6212
DTITLE=Rarities - Johnny Cash
DYEAR=2008
DGENRE=Country
TTITLE0=Get Rhythm (with Martin Delray)
TTITLE1=The Death Of Me
TTITLE2=The General Lee
TTITLE3=Mother Maybelle (with Marty Stuart)
TTITLE4=In The Garden
TTITLE5=Heroes In Black And White 
TTITLE6=Help Him, Jesus
TTITLE7=Crazy Old Soldier (with Ray Charles)
TTITLE8=Tenessee Stud (with Michael Martin Murphy)
TTITLE9=Forever Young
TTITLE10=The Far Side Banks Of Jordan (1999 Version)  (with June Carte
TTITLE10=r Cash)
TTITLE11=Six Gun Shooting
TTITLE12=Doin' My Time (with Marty Stuart)
TTITLE13=The Wanderer (with U2
TTITLE14=Life's Railway To Heaven
TTITLE15=In Your Mind
TTITLE16=I Walk The Line (Revisited) (with Rodney Crowel)
TTITLE17=Man In White
EXTD=
EXTT0=
EXTT1=
EXTT2=
EXTT3=
EXTT4=
EXTT5=
EXTT6=
EXTT7=
EXTT8=
EXTT9=
EXTT10=
EXTT11=
EXTT12=
EXTT13=
EXTT14=
EXTT15=
EXTT16=
EXTT17=
PLAYORDER=
